<svg width="33" height="29" viewBox="0 0 33 29" fill="none" xmlns="http://www.w3.org/2000/svg">
<path d="M25.8556 7.08889C25.2571 7.08889 24.7508 7.08889 24.1524 7.08889C24.1524 6.53651 24.1524 5.98413 24.1524 5.33968C22.7714 5.33968 21.4825 5.33968 20.1476 5.33968C20.1476 4.05079 20.1476 2.80794 20.1476 1.56508C16.1429 1.56508 12.1841 1.56508 8.17936 1.56508C8.17936 3.40635 8.17936 5.20159 8.17936 7.08889C7.58095 7.08889 7.0746 7.08889 6.52222 7.08889C6.52222 4.74127 6.52222 2.43968 6.52222 0.0460319C6.75238 0.0460319 6.9365 0 7.16666 0C11.8159 0 16.5111 0 21.1603 0C21.6206 0 22.173 0.230159 22.5413 0.506349C23.554 1.33492 24.5206 2.20952 25.4413 3.13016C25.6714 3.36032 25.8095 3.68254 25.8556 4.00476C25.8556 4.97143 25.8556 5.98413 25.8556 7.08889ZM23.4159 3.72857C22.9556 3.26825 22.4032 2.7619 21.8968 2.25556C21.8968 2.71587 21.8968 3.22222 21.8968 3.72857C22.4492 3.72857 23.0016 3.72857 23.4159 3.72857Z" fill="#717579"/>
<path d="M29.354 7.04283C28.4333 7.04283 27.4667 7.04283 26.546 7.04283C26.454 7.04283 26.3159 7.04283 26.2238 7.04283C26.2238 6.9968 26.2238 7.08886 26.2238 7.04283H24.1063C24.1063 6.9968 24.1063 7.08886 24.1063 7.04283C18.9048 7.04283 13.7492 7.04283 8.50159 7.04283C8.50159 6.9968 8.50159 7.08886 8.50159 7.04283H6.38413C6.38413 6.9968 6.38413 7.08886 6.38413 7.04283C6.24603 7.04283 6.15397 7.04283 6.0619 7.04283C5.09524 7.04283 4.12857 7.04283 3.20793 7.04283C1.68889 7.04283 0.676189 8.10156 0.676189 9.57458C0.676189 10.2651 0.676189 10.9555 0.676189 11.646C0.676189 14.3619 0.676189 17.1238 0.676189 19.8397C0.676189 21.3127 1.68889 22.3714 3.20793 22.3714C3.76032 22.3714 4.3127 22.3714 4.86508 22.3714C5.37143 22.3714 5.87778 22.3714 6.47619 22.3714C6.47619 22.5555 6.47619 22.6476 6.47619 22.7397C6.47619 24.3968 6.47619 26.1 6.47619 27.7571C6.47619 28.6317 6.89048 29 7.71905 29C13.473 29 19.273 29 25.027 29C25.9016 29 26.2698 28.5857 26.2698 27.7571C26.2698 26.0539 26.2698 24.3968 26.2698 22.6936C26.2698 22.6016 26.2698 22.4635 26.2698 22.3254C26.4079 22.3254 26.546 22.3254 26.6381 22.3254C27.5587 22.3254 28.4794 22.3254 29.4 22.3254C30.9651 22.3254 31.9778 21.3127 32.0238 19.7016C32.0238 16.3412 32.0238 12.9349 32.0238 9.57458C31.9317 8.05553 30.9191 7.04283 29.354 7.04283ZM24.3365 26.9285C19.1349 26.9285 13.427 26.9285 8.2254 26.9285C8.2254 24.1206 8.2254 21.3127 8.2254 18.4587C13.381 18.4587 19.1349 18.4587 24.3365 18.4587C24.3365 21.2666 24.3365 24.0746 24.3365 26.9285ZM25.119 13.1651C24.6587 13.1651 24.2444 13.1651 23.7841 13.1651C23.3698 13.1651 22.9556 13.1651 22.5413 13.1651C21.9429 13.1651 21.4825 12.7047 21.4825 12.1524C21.4825 11.5539 21.9429 11.0936 22.5413 11.0936C23.4159 11.0936 24.2905 11.0936 25.119 11.0936C25.7175 11.0936 26.2238 11.5539 26.1778 12.1524C26.1778 12.7047 25.7175 13.1651 25.119 13.1651Z" fill="#717579"/>
</svg>
