<svg width="22" height="27" viewBox="0 0 22 27" fill="none" xmlns="http://www.w3.org/2000/svg">
<path d="M5.79196 5.06796C5.79196 4.16297 5.79196 3.25798 5.79196 2.38918C5.79196 2.13578 5.79196 1.91859 5.86436 1.66519C6.08156 0.687795 6.95035 0 7.92774 0C10.5703 0 13.1767 0 15.8193 0C16.0003 0 16.2175 0.108599 16.3623 0.217199C18.1361 1.99099 19.9099 3.76477 21.6836 5.53856C21.8284 5.68336 21.937 5.97296 21.937 6.19015C21.937 10.3893 21.9732 14.5523 21.937 18.7515C21.937 20.0909 20.9958 20.9958 19.6203 20.9958C18.5705 20.9958 17.4845 20.9958 16.4347 20.9958C16.3261 20.9958 16.2537 20.9958 16.1089 20.9958C16.1089 21.1044 16.1089 21.213 16.1089 21.3216C16.1089 22.1542 16.1089 22.9868 16.1089 23.8194C16.1089 25.1588 15.1677 26.1 13.8283 26.1C9.99113 26.1 6.11776 26.1 2.28058 26.1C0.941194 26.1 0 25.1588 0 23.8194C0 18.3533 0 12.8509 0 7.38475C0 6.04536 0.941194 5.10416 2.31678 5.10416C3.47517 5.06796 4.59737 5.06796 5.79196 5.06796ZM20.5614 6.66075C20.4167 6.66075 20.3081 6.66075 20.1995 6.66075C18.8239 6.66075 17.4483 6.66075 16.0727 6.66075C15.3849 6.66075 15.2039 6.44355 15.2039 5.75576C15.2039 4.38017 15.2039 2.96838 15.2039 1.59279C15.2039 1.48419 15.2039 1.41179 15.2039 1.26699C15.0953 1.26699 14.9867 1.26699 14.9143 1.26699C12.6699 1.26699 10.3893 1.26699 8.14494 1.26699C7.45715 1.26699 7.13135 1.59279 7.13135 2.31678C7.13135 7.74674 7.13135 13.1767 7.13135 18.6067C7.13135 19.3307 7.45715 19.6565 8.18114 19.6565C11.9459 19.6565 15.7107 19.6565 19.4755 19.6565C20.2357 19.6565 20.5614 19.3307 20.5614 18.5705C20.5614 14.6971 20.5614 10.8599 20.5614 6.98655C20.5614 6.91415 20.5614 6.80555 20.5614 6.66075ZM5.82816 6.37115C4.63357 6.37115 3.47517 6.37115 2.35298 6.37115C1.70139 6.37115 1.37559 6.69695 1.37559 7.34855C1.37559 12.8147 1.37559 18.2809 1.37559 23.747C1.37559 24.3624 1.70139 24.7244 2.35298 24.7244C6.19015 24.7244 10.0273 24.7244 13.8645 24.7244C14.4799 24.7244 14.8057 24.3624 14.8419 23.747C14.8419 22.8782 14.8419 22.0094 14.8419 21.1044C14.8419 21.0682 14.8419 20.9958 14.8419 20.9234C14.7333 20.9234 14.6247 20.9234 14.5161 20.9234C12.4527 20.9234 10.3531 20.9234 8.28974 20.9234C6.80555 20.9234 5.86436 20.0185 5.86436 18.5343C5.86436 14.5885 5.86436 10.6427 5.86436 6.69695C5.82816 6.62455 5.82816 6.51595 5.82816 6.37115ZM16.5433 2.35298C16.5433 3.33038 16.5433 4.34397 16.5433 5.32136C17.5569 5.32136 18.5343 5.32136 19.5117 5.32136C18.5343 4.30777 17.5569 3.33038 16.5433 2.35298Z" fill="#717579"/>
</svg>
