<svg width="21" height="28" viewBox="0 0 21 28" fill="none" xmlns="http://www.w3.org/2000/svg">
<path d="M20.3902 28C13.7967 28 7.20327 28 0.6098 28C0.228675 27.805 0 27.493 0 27.0251C0 18.3287 0 9.63231 0 0.935934C0 0.311978 0.3049 0 0.952813 0C4.84029 0 8.72777 0 12.6152 0C12.6915 0 12.8058 0 12.9201 0C12.9201 0.155989 12.9201 0.272981 12.9201 0.350976C12.9201 2.65181 12.9201 4.91365 12.9201 7.21448C12.9201 7.87744 13.225 8.18941 13.873 8.18941C16.1216 8.18941 18.3702 8.18941 20.657 8.18941C20.7713 8.18941 20.8475 8.18941 21 8.18941C21 8.30641 21 8.4234 21 8.54039C21 14.663 21 20.7855 21 26.9081C21 27.376 20.8476 27.766 20.3902 28ZM10.4809 23.5153C12.2341 23.5153 13.9873 23.5153 15.7405 23.5153C16.3503 23.5153 16.6933 23.2033 16.6933 22.5404C16.6933 19.3426 16.6933 16.1448 16.6933 12.9861C16.6933 12.3621 16.3884 12.0111 15.7405 12.0111C12.2341 12.0111 8.76588 12.0111 5.25953 12.0111C4.61162 12.0111 4.30672 12.3231 4.30672 12.9861C4.30672 16.1838 4.30672 19.3426 4.30672 22.5404C4.30672 23.2033 4.61162 23.5153 5.25953 23.5153C7.0127 23.5153 8.76588 23.5153 10.4809 23.5153Z" fill="#717579"/>
<path d="M14.559 6.51247C14.559 4.48462 14.559 2.49576 14.559 0.545898C16.5027 2.53476 18.4846 4.52361 20.4283 6.51247C18.4846 6.51247 16.5408 6.51247 14.559 6.51247Z" fill="#717579"/>
<path d="M9.68058 15.2869C8.42287 15.2869 7.20327 15.2869 5.94556 15.2869C5.94556 14.7409 5.94556 14.2339 5.94556 13.688C7.16516 13.688 8.42287 13.688 9.68058 13.688C9.68058 14.195 9.68058 14.7409 9.68058 15.2869Z" fill="#717579"/>
<path d="M11.3575 13.649C12.6152 13.649 13.8348 13.649 15.0926 13.649C15.0926 14.195 15.0926 14.702 15.0926 15.2479C13.873 15.2479 12.6152 15.2479 11.3575 15.2479C11.3575 14.741 11.3575 14.195 11.3575 13.649Z" fill="#717579"/>
<path d="M5.94556 18.5626C5.94556 18.0167 5.94556 17.5097 5.94556 16.9637C7.20327 16.9637 8.42287 16.9637 9.68058 16.9637C9.68058 17.4707 9.68058 18.0167 9.68058 18.5626C8.46098 18.5626 7.24138 18.5626 5.94556 18.5626Z" fill="#717579"/>
<path d="M11.3194 18.5626C11.3194 18.0167 11.3194 17.5097 11.3194 16.9637C12.5771 16.9637 13.7967 16.9637 15.0544 16.9637C15.0544 17.4707 15.0544 18.0167 15.0544 18.5626C13.8348 18.5626 12.5771 18.5626 11.3194 18.5626Z" fill="#717579"/>
<path d="M9.71869 20.2396C9.71869 20.7856 9.71869 21.2926 9.71869 21.8385C8.46098 21.8385 7.24138 21.8385 5.98367 21.8385C5.98367 21.3315 5.98367 20.7856 5.98367 20.2396C7.20327 20.2396 8.42287 20.2396 9.71869 20.2396Z" fill="#717579"/>
<path d="M15.0544 21.8385C13.7967 21.8385 12.5771 21.8385 11.3194 21.8385C11.3194 21.2926 11.3194 20.7856 11.3194 20.2396C12.539 20.2396 13.7967 20.2396 15.0544 20.2396C15.0544 20.7856 15.0544 21.2926 15.0544 21.8385Z" fill="#717579"/>
</svg>
