<svg width="21" height="28" viewBox="0 0 21 28" fill="none" xmlns="http://www.w3.org/2000/svg">
<path d="M5.06896 15.4349C5.06896 15.8228 5.06896 16.2494 5.06896 16.6372C5.03084 17.2189 4.76406 17.4904 4.19237 17.5291C4.00181 17.5291 3.77313 17.5679 3.58257 17.5291C3.46823 17.5291 3.31578 17.374 3.31578 17.2964C3.31578 16.2106 3.31578 15.0859 3.31578 13.9613C4.84028 13.8061 5.06896 14 5.06896 15.4349Z" fill="#717579"/>
<path d="M11.5862 15.2798C11.5862 15.0471 11.5481 14.7756 11.51 14.5429C11.4338 14.1939 11.2051 13.9612 10.824 13.9224C10.4809 13.8837 10.1379 13.9224 9.75681 13.9224V22.2992C11.2813 22.4931 11.5862 22.2216 11.5862 20.7479C11.5862 18.964 11.5862 17.1025 11.5862 15.2798ZM11.5862 15.2798C11.5862 15.0471 11.5481 14.7756 11.51 14.5429C11.4338 14.1939 11.2051 13.9612 10.824 13.9224C10.4809 13.8837 10.1379 13.9224 9.75681 13.9224V22.2992C11.2813 22.4931 11.5862 22.2216 11.5862 20.7479C11.5862 18.964 11.5862 17.1025 11.5862 15.2798ZM20.9619 8.53186V8.18283H13.8348C13.1869 8.18283 12.882 7.87258 12.882 7.2133V0H0.952813C0.3049 0 0 0.310249 0 0.969529C0 9.65651 0 18.3435 0 27.0305C0 27.4958 0.190562 27.8061 0.6098 28H20.3902C20.8476 27.7673 21 27.4183 21 26.9141C20.9619 20.7867 20.9619 14.6593 20.9619 8.53186ZM6.82214 17.1025C6.66969 18.4986 5.75499 19.1967 4.30672 19.2355C4.00181 19.2355 3.69692 19.2355 3.31579 19.2355V24.0055H1.5245V12.1773C2.7441 12.2548 4.00181 12.2161 5.1833 12.3712C6.098 12.4875 6.66969 13.1856 6.78403 14.1163C6.89837 15.0859 6.93648 16.133 6.82214 17.1025ZM13.3394 21.8338C13.3013 23.1136 12.539 23.8892 11.2813 24.0055C10.176 24.1219 9.03267 24.0443 7.88929 24.0443V12.2548C8.04174 12.2548 8.15608 12.2161 8.27042 12.2161C9.07078 12.2161 9.87114 12.2161 10.6715 12.2161C12.3103 12.2161 13.2632 12.9917 13.3394 14.6205C13.4537 17.0249 13.4156 19.4294 13.3394 21.8338ZM19.4374 13.8837H16.5027V17.1801H18.7895V18.8864H16.4646V24.0055H14.6733V12.2548H19.4374V13.8837ZM11.51 14.5429C11.4338 14.1939 11.2051 13.9612 10.824 13.9224C10.4809 13.8837 10.1379 13.9224 9.75681 13.9224V22.2992C11.2813 22.4931 11.5862 22.2216 11.5862 20.7479C11.5862 18.9252 11.5862 17.1025 11.5862 15.2798C11.5862 15.0471 11.5481 14.8144 11.51 14.5429Z" fill="#717579"/>
<path d="M20.3902 6.55396C18.4465 6.55396 16.5027 6.55396 14.5209 6.55396C14.5209 4.53734 14.5209 2.5595 14.5209 0.581665C16.4646 2.5595 18.4084 4.57612 20.3902 6.55396Z" fill="#717579"/>
</svg>
