<svg width="22" height="28" viewBox="0 0 22 28" fill="none" xmlns="http://www.w3.org/2000/svg">
<path d="M21.3295 8.5318V8.18277H14.0775C13.4182 8.18277 13.1079 7.87252 13.1079 7.21325V0H0.969522C0.310247 0 0 0.310247 0 0.969522C0 9.65644 0 18.3434 0 27.0303C0 27.4956 0.193904 27.8059 0.620494 27.9998H20.7478C21.2131 27.7671 21.3683 27.4181 21.3683 26.9139C21.3295 20.7866 21.3295 14.6592 21.3295 8.5318ZM16.637 25.4403C15.8226 25.4403 15.0082 25.4403 14.1938 25.4403C13.9999 25.4403 13.9223 25.3627 13.8448 25.2464C12.8753 23.54 11.867 21.7949 10.8587 20.0885C10.8199 20.0109 10.7811 19.9334 10.7035 19.817C10.626 19.9334 10.5872 20.0109 10.5484 20.0885C9.5401 21.7949 8.57058 23.5012 7.56227 25.2464C7.48471 25.4015 7.36837 25.479 7.17447 25.479C6.2825 25.479 5.39054 25.479 4.4598 25.479C4.53736 25.3627 4.57615 25.2851 4.61493 25.2076C6.0886 22.9195 7.56227 20.5927 9.03595 18.3046C9.15229 18.1107 9.15229 17.9943 9.03595 17.8392C7.56227 15.5511 6.0886 13.2631 4.61493 10.975C4.57615 10.8974 4.49858 10.7811 4.42102 10.6647C5.39054 10.6647 6.32129 10.6647 7.25203 10.6647C7.32959 10.6647 7.44593 10.7811 7.48471 10.8586C8.49302 12.565 9.46254 14.2714 10.4708 16.0165C10.5096 16.0941 10.5484 16.1716 10.626 16.288C10.7035 16.1716 10.7423 16.0941 10.7811 16.0165C11.7894 14.3101 12.7589 12.6038 13.7672 10.8586C13.8836 10.6647 13.9611 10.626 14.1938 10.626C15.0082 10.626 15.7838 10.626 16.5982 10.626C16.6758 10.626 16.7533 10.626 16.8697 10.626C16.7921 10.7423 16.7533 10.8199 16.7146 10.8974C15.2409 13.2243 13.7672 15.5124 12.2935 17.8392C12.1772 18.0331 12.1772 18.1107 12.2935 18.3046C13.7672 20.5927 15.2409 22.8807 16.7146 25.1688C16.7533 25.2464 16.8309 25.3627 16.9085 25.479H16.637V25.4403Z" fill="#717579"/>
<path d="M20.7478 6.55392C18.77 6.55392 16.7921 6.55392 14.7755 6.55392C14.7755 4.53732 14.7755 2.55949 14.7755 0.581665C16.7533 2.55949 18.7312 4.5761 20.7478 6.55392Z" fill="#717579"/>
</svg>
